<?xml version="1.0" encoding="utf-8"?>
<!-- Generator: Adobe Illustrator 27.9.0, SVG Export Plug-In . SVG Version: 6.00 Build 0)  -->
<svg version="1.1" id="Layer_1" xmlns="http://www.w3.org/2000/svg" xmlns:xlink="http://www.w3.org/1999/xlink" x="0px" y="0px"
	 viewBox="0 0 800 800" style="enable-background:new 0 0 800 800;" xml:space="preserve">
<style type="text/css">
	.st0{fill:url(#SVGID_1_);}
	.st1{fill:url(#SVGID_00000160183997380980372300000003490755080535585168_);}
	.st2{fill:#FFFFFF;}
</style>
<g>
	<linearGradient id="SVGID_1_" gradientUnits="userSpaceOnUse" x1="399.9445" y1="99.5847" x2="399.9445" y2="700.2487">
		<stop  offset="0" style="stop-color:#0090FF"/>
		<stop  offset="1" style="stop-color:#023192"/>
	</linearGradient>
	<path class="st0" d="M697,99.58v465.45c0,74.67-60.54,135.22-135.22,135.22H102.89V234.8c0-74.67,60.54-135.22,135.22-135.22H697z"
		/>
	
		<linearGradient id="SVGID_00000021089970489755554170000013820188856697253794_" gradientUnits="userSpaceOnUse" x1="369.7847" y1="269.5298" x2="499.9482" y2="723.4639">
		<stop  offset="0" style="stop-color:#013476"/>
		<stop  offset="0.7894" style="stop-color:#023495"/>
	</linearGradient>
	<path style="fill:url(#SVGID_00000021089970489755554170000013820188856697253794_);" d="M697,420.46v144.57
		c0,74.67-60.54,135.22-135.22,135.22h-276.1L167.66,548.38l-2.94-3.75v-1.16c0-38.77-0.55-77.54-0.07-116.31l113.72-88.87
		c10.72,17.2,21.5,34.4,32.15,51.6c0.89-1.3,1.84-2.66,2.73-3.96c25.12-40,50.03-80.07,75.15-120.13c0.82-1.43,1.98-2.73,3.82-2.32
		c38.16-0.07,76.31,0,114.47,0c23.07-0.2,46.28,4.44,66.82,15.08c10.24,5.32,19.86,11.95,28.53,19.73l31.81,40.95l5.12,6.62
		L697,420.46z"/>
	<g>
		<g>
			<path class="st2" d="M640.76,350.09c-0.55-1.43-1.09-2.87-1.77-4.23c-1.57-3.82-3.28-7.64-5.26-11.33
				c-7.99-15.43-18.91-29.35-31.88-40.95c-8.67-7.71-18.29-14.33-28.6-19.66c-20.55-10.65-43.82-15.29-66.89-15.09
				c-38.22,0-76.52-0.07-114.74,0c-1.84-0.41-3,0.89-3.82,2.32c-25.12,40-50.1,80.07-75.29,120c-0.89,1.3-1.84,2.66-2.73,3.96
				c-10.65-17.2-21.43-34.33-32.22-51.53c-14.13-22.32-28.19-44.64-42.18-67.03c-1.71-2.46-3.34-4.98-4.91-7.51
				c-22.25-0.14-44.5-0.07-66.76-0.07c0.07,52.29,0.07,104.5,0,156.72c0,2.25-0.07,4.44-0.07,6.69
				c-0.48,39.11,0.07,78.22,0.07,117.33v3.75h2.94c21.23,0,42.46,0,63.68,0.07c0-55.15-0.07-110.24,0-165.39
				c25.39,40.34,50.44,80.82,75.9,121.02c2.46,0,4.85-0.07,7.3-0.07c25.26-40.27,50.44-80.61,75.7-120.95v165.39
				c35.29-0.07,70.65-0.07,105.94-0.07c7.99,0,15.9,0.2,23.89-0.34c23.96-1.57,47.71-9.01,67.64-22.66
				c28.05-18.98,49.83-47.98,57.81-81.09C651.61,410.09,650.52,378.69,640.76,350.09z M584.03,406.4
				c-2.87,20.61-9.69,41.98-25.19,56.65c-13.24,12.56-31.74,17.61-49.55,17.95c-17.54,0.07-35.02,0-52.56,0.07
				c-0.2-53.17,0.48-106.41-0.34-159.59c17.61,0.34,35.22-0.2,52.9,0.27c20.89,1.91,42.8,8.46,57.34,24.44
				C581.24,362.24,585.95,385.24,584.03,406.4z"/>
		</g>
	</g>
</g>
</svg>
